<?xml version="1.0" encoding="iso-8859-1"?>
<!-- Generator: Adobe Illustrator 19.0.0, SVG Export Plug-In . SVG Version: 6.00 Build 0)  -->
<svg version="1.1" id="Layer_1" xmlns="http://www.w3.org/2000/svg" xmlns:xlink="http://www.w3.org/1999/xlink" x="0px" y="0px"
	 viewBox="0 0 512 512" style="enable-background:new 0 0 512 512;" xml:space="preserve"
     height="20px" width="20px">
	     <title>Logout</title>
    <defs>
        <filter color-interpolation-filters="auto" id="filter-1">
            <feColorMatrix in="SourceGraphic" type="matrix" values="0 0 0 0 1.000000 0 0 0 0 1.000000 0 0 0 0 1.000000 0 0 0 1.000000 0"></feColorMatrix>
        </filter>
        <filter color-interpolation-filters="auto" id="filter-2">
            <feColorMatrix in="SourceGraphic" type="matrix" values="0 0 0 0 0.000000 0 0 0 0 0.000000 0 0 0 0 0.000000 0 0 0 1.000000 0"></feColorMatrix>
        </filter>
        <filter color-interpolation-filters="auto" id="filter-3">
            <feColorMatrix in="SourceGraphic" type="matrix" values="0 0 0 0 0.000000 0 0 0 0 0.000000 0 0 0 0 0.000000 0 0 0 1.000000 0"></feColorMatrix>
        </filter>
        <path d="M12.0186,6.6787 L9.3236,3.9837 L11.2716,2.0347 L13.9656,4.7287 L12.0186,6.6787 Z M5.0796,13.6247 L2.1026,13.8957 L2.3666,10.9397 L7.9836,5.3227 L10.6796,8.0187 L5.0796,13.6247 Z M15.4036,3.3377 L15.4026,3.3367 L12.6646,0.5987 C11.9236,-0.1403 10.6506,-0.1753 9.9486,0.5297 L0.9526,9.5257 C0.6266,9.8507 0.4246,10.2827 0.3826,10.7397 L0.0036,14.9097 C-0.0224,15.2047 0.0826,15.4967 0.2926,15.7067 C0.4816,15.8957 0.7366,15.9997 0.9996,15.9997 C1.0306,15.9997 1.0606,15.9987 1.0906,15.9957 L5.2606,15.6167 C5.7186,15.5747 6.1496,15.3737 6.4746,15.0487 L15.4716,6.0517 C16.1996,5.3217 16.1686,4.1037 15.4036,3.3377 L15.4036,3.3377 Z" id="path-4"></path>
    </defs>
<g>
	<g>
		<path d="M358.401,192V12.8c0-7.066-5.734-12.8-12.8-12.8h-332.8c-7.066,0-12.8,5.734-12.8,12.8v486.4
			c0,7.066,5.734,12.8,12.8,12.8h332.8c7.066,0,12.8-5.734,12.8-12.8V320h-25.6v166.4h-307.2V25.6h307.2V192H358.401z"/>
	</g>
</g>
<g>
	<g>
		<path d="M508.161,246.844l-74.931-76.595c-4.941-5.06-13.047-5.146-18.099-0.205c-5.052,4.941-5.146,13.056-0.205,18.099
			l53.854,55.057H193.673c-7.066,0-12.8,5.734-12.8,12.8c0,7.066,5.734,12.8,12.8,12.8h275.098l-53.854,55.057
			c-4.941,5.043-4.847,13.158,0.205,18.099c5.06,4.941,13.158,4.855,18.099-0.205l75.128-76.8
			C513.289,259.9,513.204,251.785,508.161,246.844z"/>
	</g>
</g>
<g>
</g>
<g>
</g>
<g>
</g>
<g>
</g>
<g>
</g>
<g>
</g>
<g>
</g>
<g>
</g>
<g>
</g>
<g>
</g>
<g>
</g>
<g>
</g>
<g>
</g>
<g>
</g>
<g>
</g>
</svg>
